<svg xmlns="http://www.w3.org/2000/svg" width="760" height="500" font-family="monospace" font-size="13">
<rect width="100%" height="100%" fill="white"/>
<text x="180" y="32" font-size="15" font-weight="bold">cargo-geiger unsafe audit — thttpd-rs workspace</text>
<text x="180" y="50" font-size="11" fill="#555">0 = no raw memory ops. Boundary crates (audited FFI) shown in amber/red.</text>
<text x="170" y="75" text-anchor="end" fill="#060" font-weight="bold">thttpd-http</text>
<rect x="180" y="62" width="8" height="18" fill="#2a7"/>
<text x="196" y="75" fill="#2a7" font-weight="bold">0 — unsafe-free (Gate 1 enforced)</text>
<text x="170" y="113" text-anchor="end" fill="#b00" font-weight="bold">thttpd-auth</text>
<rect x="180" y="100" width="400" height="18" fill="#d44"/>
<text x="588" y="113" fill="#333" font-weight="bold">4 — audited FFI boundary (see SECURITY_NOTES.md)</text>
<text x="170" y="151" text-anchor="end" fill="#b00" font-weight="bold">thttpd-core</text>
<rect x="180" y="138" width="200" height="18" fill="#e85"/>
<text x="388" y="151" fill="#333" font-weight="bold">2 — audited FFI boundary (see SECURITY_NOTES.md)</text>
<text x="170" y="189" text-anchor="end" fill="#b00" font-weight="bold">thttpd-mmc</text>
<rect x="180" y="176" width="300" height="18" fill="#e85"/>
<text x="488" y="189" fill="#333" font-weight="bold">3 — audited FFI boundary (see SECURITY_NOTES.md)</text>
<text x="170" y="227" text-anchor="end" fill="#222" font-weight="normal">thttpd-fdwatch</text>
<rect x="180" y="214" width="8" height="18" fill="#9ab"/>
<text x="196" y="227" fill="#666">0</text>
<text x="170" y="265" text-anchor="end" fill="#222" font-weight="normal">thttpd-match</text>
<rect x="180" y="252" width="8" height="18" fill="#9ab"/>
<text x="196" y="265" fill="#666">0</text>
<text x="170" y="303" text-anchor="end" fill="#222" font-weight="normal">thttpd-migrate</text>
<rect x="180" y="290" width="8" height="18" fill="#9ab"/>
<text x="196" y="303" fill="#666">0</text>
<text x="170" y="341" text-anchor="end" fill="#222" font-weight="normal">thttpd-mime</text>
<rect x="180" y="328" width="8" height="18" fill="#9ab"/>
<text x="196" y="341" fill="#666">0</text>
<text x="170" y="379" text-anchor="end" fill="#222" font-weight="normal">thttpd-tdate</text>
<rect x="180" y="366" width="8" height="18" fill="#9ab"/>
<text x="196" y="379" fill="#666">0</text>
<text x="170" y="417" text-anchor="end" fill="#222" font-weight="normal">thttpd-timers</text>
<rect x="180" y="404" width="8" height="18" fill="#9ab"/>
<text x="196" y="417" fill="#666">0</text>
<text x="180" y="465" font-size="10" fill="#888">Generated by pipeline/audit_unsafe.sh (cargo-geiger per-package scan). Source: geiger.json</text>
</svg>